<svg width="332" height="201" viewBox="0 0 332 201" fill="none" xmlns="http://www.w3.org/2000/svg">
    <style>
        path {
            stroke: #282828;
            fill: #282828;
        }
        @media(prefers-color-scheme: dark) {
            path {
                stroke: #FBF1C7;
                fill: #FBF1C7;
            }
        }
    </style>
    <path d="M10 10h312m-222 0v181" stroke-width="20" stroke-linecap="round"/><path d="M287.25 150.25a7.5 7.5 0 0 0 0-15v15Zm-100 0h100v-15h-100v15Zm100-82a7.5 7.5 0 0 0 0-15v15Zm-100 0h100v-15h-100v15Z"/><path stroke-width="15" stroke-linecap="round" d="M287.75 142.75v-82"/><path d="M183.75 158.25v-116" stroke-width="8" stroke-linecap="round"/><path stroke-width="8" d="M168.25 129.25h12m0-56h-12"/><path d="M164.75 135.25v-68" stroke-width="8" stroke-linecap="round"/><path stroke-width="8" d="M185.75 121.25h98m-98.5-40h100m-100 20h98"/>
</svg>
